<?xml version="1.0" encoding="UTF-8"?><svg id="a" xmlns="http://www.w3.org/2000/svg" viewBox="0 0 350 150"><path d="m168.06,75.63v-5.72c0-11.02,5.02-17.17,14.63-17.17,3.4,0,6.53.81,9.5,2.38l-1.57,4.1c-2.43-1.4-4.81-2-7.45-2-7.13,0-10.21,4.81-10.21,13.23v4.86c0,7.94,3.35,12.42,9.34,12.42,2.65,0,4.91-.65,6.86-2v-8.42l.05-1.62h-6.26v-4.21h11.02v16.09c-3.35,3.24-7.4,4.59-11.77,4.59-9.29,0-14.15-5.94-14.15-16.52Z"/><path d="m205.93,91.35h-4.75v-27.81h4.1l.11,7.45c.92-4.91,3.13-8.15,7.94-8.15,1.4,0,2.54.27,3.35.54l-.97,4.75c-.86-.27-1.73-.43-2.65-.43-4.7,0-7.13,3.78-7.13,10.42v13.23Z"/><path d="m220.12,83.35c0-5.99,5.13-8.86,11.83-8.86h6.1l-.05-2.54c-.05-3.62-2.38-4.91-6.21-4.91-3.02,0-6.1.81-8.32,1.84l-1.67-3.89c3.19-1.51,6.91-2.27,10.21-2.27,5.94,0,10.75,2.43,10.75,9.4v19.22h-3.89l-.22-4.54c-1.46,3.46-4.64,5.35-8.86,5.35-5.67,0-9.67-3.29-9.67-8.37v-.43Zm10.31,5.02c5.18,0,7.72-2.48,7.67-7.51l-.05-2.48h-6.21c-4.7,0-7.13,1.73-7.13,4.97v.43c0,3.02,2,4.59,5.72,4.59Z"/><path d="m252.26,53.27c1.78,0,3.08,1.3,3.08,3.08s-1.3,3.08-3.08,3.08-3.08-1.3-3.08-3.08,1.3-3.08,3.08-3.08Zm-2.38,10.26h4.75v27.81h-4.75v-27.81Z"/><path d="m261.89,83.79v-31.86h4.75v32.29c0,2.11,1.13,3.19,3.19,3.19v4.32c-5.72,0-7.94-2.21-7.94-7.94Z"/><path d="m273.12,53.54h9.88v2.48h-3.56l-.11,12.58h-2.65l.11-12.58h-3.67v-2.48Zm11.83,0h3.89l3.35,9.07.16.65h.05l.16-.65,3.4-9.07h4v15.07h-2.65v-9.99l.05-1.84-3.62,9.18h-2.86l-3.46-8.86.05,1.73v9.77h-2.54v-15.07Z"/><path d="m119.75,95.59v-55.35h-.07c-.84-6.99-10.37-11.56-22.21-13.53-1.13-.19-2.27-.35-3.43-.5h0c-.45-.88-1.04-1.68-1.74-2.36-.41-.4-.85-.76-1.32-1.08-1.47-.99-3.24-1.57-5.14-1.57-3.39,0-6.35,1.83-7.95,4.55,0,0,0,0,0,0-1.16.07-2.3.16-3.44.28-14.06,1.43-26.29,6.25-27.24,14.21h-.06v.69c0,.1,0,.21,0,.32s0,.22,0,.32v17.97c-6,1.46-10.46,6.87-10.46,13.33s4.46,11.86,10.46,13.33v15.16c0,6.11,6.54,9.7,12.03,11.63,6.54,2.31,15.16,3.57,24.26,3.57,1.85,0,3.67-.05,5.43-.15.31-.02.62-.04.93-.06.7-.05,1.41-.1,2.12-.17,0,0,0,0,0,0,2.38,7.31,9.25,12.6,17.35,12.6,10.08,0,18.25-8.17,18.25-18.25,0-6.18-3.08-11.64-7.78-14.94Zm-14.56-59.27c3.72,1.37,5.76,2.86,6.61,3.92.33.41.48.76.48,1.01,0,.9-1.92,3.04-7.09,4.93-1.6.59-3.35,1.1-5.23,1.53-4.86,1.13-10.55,1.73-16.52,1.73-2.34,0-4.64-.09-6.86-.27l-5.32,6.91c3.92.56,8.05.84,12.17.84,10.89,0,21.85-1.96,28.84-5.77v41.39c-.98-.16-1.98-.25-3-.25-3.39,0-6.56.93-9.28,2.54h0s-36.15-19.12-36.15-19.12h0c.19-.91.29-1.86.29-2.83,0-3.23-1.12-6.19-2.98-8.54h0s19.99-25.97,19.99-25.97c1.38.82,2.99,1.29,4.7,1.29,3.91,0,7.25-2.43,8.59-5.87,0,0,0,0,0,0,1.02.14,2.03.3,3,.48,2.84.53,5.46,1.22,7.76,2.06Zm-50.1,3.92c.85-1.06,2.88-2.55,6.61-3.92,3.49-1.28,7.71-2.21,12.34-2.74.99-.12,2-.21,3.03-.29,0,0,0,0,0,0,.34,1.05.87,2.01,1.54,2.86l-22.43,24.27h0c-.51-.23-1.03-.43-1.57-.61v-8.66c1.3.71,2.73,1.35,4.28,1.93l5.56-6.01c-.96-.27-1.88-.57-2.76-.89-5.16-1.89-7.09-4.03-7.09-4.93,0-.25.15-.6.48-1.01Zm34.21,68.65c-.39.03-.79.05-1.2.07-1.51.08-3.07.12-4.66.12-19.84,0-28.82-5.93-28.82-7.74v-15.43c1.6-.51,3.07-1.31,4.35-2.34h0s32.47,23.08,32.47,23.08h0c-.15.68-.25,1.38-.32,2.08,0,0,0,0,0,0-.59.05-1.2.1-1.82.14Z"/></svg>